<svg width="176" height="83" viewBox="0 0 176 83" fill="none" xmlns="http://www.w3.org/2000/svg">
<path d="M10.4609 21.2062C13.2843 19.2146 16.1113 17.233 18.9291 15.2314C18.9236 29.3714 18.9383 43.5134 18.9218 57.6533C17.8144 58.4532 16.6888 59.2191 15.5833 60.0229C14.1588 60.9859 12.7526 61.9827 11.3574 62.9974C11.0824 63.2063 10.7873 63.3774 10.4774 63.5166C10.4646 49.4145 10.4958 35.3103 10.4609 21.2062Z" fill="#E85984"/>
<path d="M18.9271 15.2335C31.3846 15.2335 43.8421 15.2315 56.2996 15.2335C57.5995 15.2514 58.8516 16.3636 58.958 17.804C59.0075 20.3368 58.925 22.8735 58.9983 25.4082C59.0258 35.1054 59.002 44.8007 59.0093 54.4979C58.991 55.5583 59.0551 56.6208 58.9763 57.6812C54.8036 57.727 50.6291 57.6872 46.4565 57.6991C37.772 57.6991 29.0893 57.6991 20.4048 57.6991C19.908 57.7071 19.4111 57.7111 18.918 57.6514C18.9345 43.5114 18.918 29.3695 18.9253 15.2295M36.0395 24.0533C35.2126 26.6497 34.5508 29.3058 33.7808 31.9221C32.3435 37.0274 30.9061 42.1306 29.4688 47.2359C29.3368 47.6438 29.225 48.0596 29.159 48.4874C30.5193 48.5093 31.8833 48.5212 33.2436 48.4834C33.7661 46.5197 34.296 44.5599 34.8001 42.5902C34.8496 42.4152 34.9138 42.248 34.978 42.0829C37.5575 42.0909 40.1388 42.0451 42.7201 42.1048C43.3398 44.2356 43.9301 46.3804 44.5865 48.4973C45.978 48.5053 47.3695 48.5152 48.7591 48.4894C47.9341 45.4871 46.9955 42.5226 46.1375 39.5303C44.5901 34.3792 43.0996 29.2063 41.5431 24.0593C39.7098 24.0115 37.8728 24.0215 36.0395 24.0533Z" fill="#E51050"/>
<path d="M38.7378 27.2268C39.0036 27.9172 39.1081 28.6613 39.3226 29.3696C40.1091 32.4097 40.9415 35.4378 41.6968 38.4898C39.7626 38.5177 37.8266 38.5197 35.8906 38.4898C36.7835 34.7196 37.8266 30.9931 38.7378 27.2268Z" fill="#E51050"/>
<path d="M10.424 23.2277C10.4369 22.5532 10.38 21.8768 10.4589 21.2063C10.4937 35.3085 10.4625 49.4126 10.4754 63.5168L10.4699 63.66C10.369 63.2303 10.4277 62.7866 10.4222 62.3509C10.4222 49.3111 10.4222 36.2674 10.4222 23.2277H10.424Z" fill="white"/>
<path d="M128.132 29.6502C129.322 28.6614 130.855 28.2057 132.343 28.2654C134.054 28.2137 135.779 28.8802 137.073 30.0939C136.619 30.6848 136.182 31.3055 135.647 31.8109C134.765 31.206 133.801 30.6549 132.736 30.6191C131.548 30.4739 130.237 30.9414 129.546 32.0437C129.093 32.8156 128.821 33.7268 128.832 34.646C128.84 36.3153 128.842 37.9865 128.832 39.6558C128.82 40.6347 129.131 41.6215 129.701 42.3795C130.394 43.1992 131.467 43.5156 132.468 43.4161C133.66 43.4201 134.765 42.8789 135.766 42.2244C136.204 42.7934 136.593 43.4101 136.943 44.0468C135.726 45.0257 134.266 45.6663 132.748 45.7678C131.025 45.9051 129.153 45.543 127.82 44.2696C126.607 43.1316 126.038 41.3589 126.029 39.6498C126.027 38.0303 126.031 36.4128 126.027 34.7933C126.035 32.8713 126.715 30.8638 128.136 29.6482L128.132 29.6502Z" fill="white"/>
<path d="M80.1236 28.6474C81.2987 28.5459 82.4794 28.6255 83.6582 28.6016C83.8617 28.5737 84.0652 28.6712 84.0891 28.916C85.1506 32.4733 86.1919 36.0387 87.2571 39.594C87.7979 41.5677 88.4762 43.4976 88.9566 45.4892C87.9922 45.5031 87.0242 45.5349 86.0599 45.4713C85.6309 44.0229 85.2092 42.5705 84.7894 41.1201C83.8874 41.0246 82.9817 41.1002 82.0797 41.0763C81.1759 41.0982 80.2702 41.0226 79.3701 41.1201C79.0181 42.5784 78.6129 44.0209 78.2371 45.4713C77.2856 45.5349 76.3304 45.5111 75.3789 45.4852C76.9427 39.8666 78.5286 34.256 80.1254 28.6474M82.0009 30.9314C81.3262 33.488 80.6901 36.0605 80.0227 38.6211C81.3592 38.5694 82.6976 38.6132 84.0359 38.5993C83.9552 37.9546 83.7499 37.3379 83.5904 36.7151C83.1687 35.0837 82.7416 33.4522 82.3254 31.8188C82.2466 31.5124 82.1879 31.1881 82.0009 30.9334V30.9314Z" fill="white"/>
<path d="M142.622 28.6433C143.887 28.5598 145.157 28.5996 146.424 28.6234C146.934 30.0261 147.298 31.4904 147.744 32.9209C148.928 36.918 150.107 40.9191 151.299 44.9142C151.348 45.1032 151.392 45.2962 151.438 45.4891C150.472 45.513 149.506 45.5269 148.54 45.4832C148.109 44.0348 147.676 42.5863 147.289 41.122C145.487 41.0464 143.672 41.0484 141.87 41.122C141.5 42.5764 141.094 44.0188 140.731 45.4752C139.78 45.5329 138.825 45.515 137.875 45.4832C139.191 40.7042 140.557 35.9431 141.89 31.1701C142.147 30.3325 142.339 29.473 142.62 28.6433M144.501 30.9314C143.817 33.482 143.199 36.0525 142.504 38.6012C143.846 38.5932 145.188 38.6032 146.53 38.5972C146.45 37.9526 146.246 37.3358 146.087 36.7131C145.67 35.1174 145.245 33.5258 144.849 31.9262C144.757 31.5859 144.702 31.2199 144.501 30.9334V30.9314Z" fill="white"/>
<path d="M154.161 28.6314C155.877 28.5578 157.597 28.6274 159.314 28.5976C160.935 28.5618 162.664 29.0373 163.854 30.2947C164.946 31.5223 165.572 33.2273 165.55 34.9364C165.542 36.1719 165.542 37.4114 165.55 38.649C165.628 40.545 164.901 42.459 163.643 43.7721C162.27 45.141 160.336 45.5647 158.524 45.5488C157.07 45.521 155.615 45.5906 154.163 45.515C154.095 41.0384 154.154 36.5579 154.135 32.0813C154.152 30.9314 154.097 29.7794 154.161 28.6314ZM156.927 30.9493C156.865 32.9906 156.92 35.0359 156.902 37.0792C156.922 39.0827 156.861 41.0882 156.931 43.0917C157.635 43.1494 158.341 43.1195 159.047 43.1315C160.365 43.1315 161.738 42.3754 162.283 41.0265C162.895 39.7631 162.721 38.3067 162.732 36.9359C162.706 35.5671 162.902 34.1067 162.286 32.8433C161.813 31.6516 160.618 30.9413 159.45 30.9333C158.609 30.9333 157.769 30.9254 156.927 30.9473V30.9493Z" fill="white"/>
<path d="M105.411 29.5188C106.229 29.4134 107.06 29.4572 107.883 29.497C107.952 30.5315 107.883 31.5701 107.91 32.6087C108.761 32.6484 109.615 32.535 110.462 32.6624C110.462 33.4045 110.462 34.1486 110.459 34.8927C109.608 34.9285 108.755 34.8251 107.908 34.9424C107.908 37.322 107.91 39.7035 107.908 42.083C107.883 42.5904 108.097 43.1316 108.546 43.3405C109.164 43.627 109.848 43.422 110.493 43.4121C110.636 44.1005 110.752 44.7988 110.785 45.5031C109.454 45.8951 107.954 46.0483 106.676 45.3798C105.8 44.954 105.228 43.9513 105.157 42.9286C105.122 40.2586 105.191 37.5866 105.124 34.9186C104.52 34.8629 103.914 34.9046 103.309 34.8907C103.312 34.1526 103.312 33.4144 103.309 32.6763C103.928 32.551 104.559 32.6305 105.184 32.6106C105.333 31.586 105.314 30.5494 105.411 29.5208V29.5188Z" fill="white"/>
<path d="M116.875 32.3062C118.16 32.171 119.5 32.2605 120.675 32.8972C121.904 33.5 122.877 34.6898 123.247 36.1024C123.627 37.3837 123.581 38.7445 123.563 40.0716C123.524 41.6115 123.005 43.1634 121.995 44.2656C121.055 45.2007 119.812 45.8195 118.525 45.8414C117.7 45.8474 116.851 45.9051 116.055 45.6186C114.992 45.2564 113.965 44.582 113.357 43.5434C112.862 42.7456 112.555 41.8165 112.418 40.8714C112.345 40.0855 112.407 39.2957 112.383 38.5078C112.335 37.0076 112.689 35.4438 113.553 34.2501C114.35 33.1299 115.615 32.5231 116.875 32.3062ZM116.998 34.7156C116.261 34.9763 115.692 35.6428 115.432 36.4227C114.994 37.4851 115.19 38.6689 115.144 39.7931C115.129 40.9987 115.439 42.3735 116.405 43.0938C117.115 43.5991 118.041 43.6608 118.844 43.4061C119.625 43.1714 120.204 42.4352 120.479 41.6294C120.886 40.5471 120.739 39.3573 120.765 38.2193C120.785 37.133 120.474 35.9731 119.715 35.227C118.976 34.5406 117.903 34.455 116.996 34.7136L116.998 34.7156Z" fill="white"/>
<path d="M90.8824 32.6386C91.8027 32.5848 92.7267 32.5868 93.6489 32.6386C93.6746 35.7403 93.6471 38.8441 93.6599 41.9458C93.6306 42.6482 94.0999 43.3147 94.7269 43.4818C95.5941 43.7126 96.5162 43.3604 97.2001 42.7755C97.5154 42.4711 97.9481 42.1508 97.9572 41.6454C97.9792 38.6431 97.9169 35.6408 97.9866 32.6406C98.8959 32.6027 99.8162 32.557 100.722 32.6624C100.718 36.9341 100.715 41.2057 100.722 45.4754C99.9464 45.5231 99.1654 45.5231 98.3899 45.4813C98.3092 45.0615 98.2524 44.6377 98.1974 44.214C97.7482 44.5044 97.3889 44.9342 96.9232 45.1968C95.6307 45.9688 93.9716 46.0583 92.6571 45.3003C91.5186 44.6775 90.8256 43.3027 90.8531 41.9339C90.8714 38.8361 90.8146 35.7363 90.8806 32.6406L90.8824 32.6386Z" fill="white"/>
<path d="M36.0407 24.0533C37.874 24.0194 39.711 24.0095 41.5443 24.0592C43.1008 29.2063 44.5913 34.3792 46.1387 39.5302C46.9967 42.5226 47.9353 45.4851 48.7603 48.4893C47.3688 48.5172 45.9773 48.5072 44.5877 48.4973C43.9295 46.3804 43.341 44.2356 42.7213 42.1048C40.1418 42.0451 37.5605 42.0888 34.9792 42.0829C34.9168 42.25 34.8508 42.4171 34.8013 42.5902C34.2972 44.5599 33.7673 46.5196 33.2448 48.4834C31.8845 48.5212 30.5205 48.5112 29.1602 48.4873C29.2243 48.0596 29.3362 47.6438 29.47 47.2359C30.9073 42.1306 32.3465 37.0273 33.782 31.9221C34.552 29.3058 35.212 26.6497 36.0407 24.0533ZM38.7393 27.2267C37.8282 30.991 36.785 34.7194 35.8922 38.4897C37.8282 38.5195 39.7642 38.5175 41.6983 38.4897C40.9448 35.4377 40.1107 32.4095 39.3242 29.3694C39.1097 28.6611 39.0052 27.9151 38.7393 27.2267Z" fill="white"/>
<path d="M59.0011 25.4082C60.1121 25.259 61.2396 25.3346 62.3579 25.3585C62.4148 28.5498 62.3653 31.7431 62.3818 34.9364C62.3818 45.121 62.3818 55.3077 62.3818 65.4924C62.3744 66.2504 62.4074 67.0084 62.3598 67.7665C47.8838 67.7923 33.4059 67.7665 18.9299 67.7784C18.0701 67.7764 17.1278 67.6909 16.4604 67.0343C15.9599 66.525 15.5731 65.8227 15.5878 65.0567C15.5841 63.3775 15.5878 61.7002 15.5859 60.021C16.6914 59.2192 17.8171 58.4512 18.9244 57.6514C19.4176 57.7091 19.9144 57.7071 20.4113 57.6992C29.0958 57.6992 37.7784 57.6992 46.4629 57.6992C50.6356 57.6872 54.8119 57.727 58.9828 57.6813C59.0616 56.6208 58.9974 55.5604 59.0158 54.4979C59.0084 44.8007 59.0323 35.1055 59.0048 25.4082H59.0011Z" fill="#770829"/>
</svg>
