<svg width="219" height="68" viewBox="0 0 219 68" fill="none" xmlns="http://www.w3.org/2000/svg">
<g clip-path="url(#clip0_1059_75)">
<path fill-rule="evenodd" clip-rule="evenodd" d="M31.027 15.223C30.1714 12.6306 25.5794 11.8478 21.699 12.0216C17.8458 12.1938 14.332 13.1274 14.551 13.8427C14.7804 14.5882 16.7218 14.5378 17.905 14.5071C18.1077 14.5018 18.2883 14.4971 18.434 14.4971C22.1037 14.4971 25.6376 15.179 26.4819 16.1605C27.7981 17.6935 25.5314 21.4749 18.5603 26.6299C17.2229 27.6193 16.2247 28.5297 16.004 28.9762C15.8848 29.2143 15.9415 29.5598 16.3074 29.6078C16.6909 29.6585 17.6112 29.454 19.1289 28.7085C25.322 25.6674 32.4288 19.4719 31.027 15.223ZM38.2752 26.0392L38.1686 26.0216C34.7429 25.4544 28.6141 25.2315 26.5189 28.4825C24.9732 30.8823 27.6926 34.1273 30.3658 37.3168C30.4921 37.4677 30.6184 37.6185 30.7442 37.769C30.9816 38.0531 31.2212 38.3358 31.4588 38.6161C33.4544 40.9704 35.3012 43.1493 34.414 44.4805C33.7172 45.5288 29.7699 45.6725 27.5452 45.7536C27.1865 45.7666 26.8725 45.7781 26.6242 45.7914C26.0287 45.8237 25.3616 45.8478 24.6957 45.8718C22.9316 45.9354 21.1755 45.9987 20.7787 46.2152C20.288 46.4829 20.0149 47.3144 21.8534 47.6464C23.3295 47.9146 26.8433 48.4591 30.5527 48.4564C34.4245 48.4555 38.4916 47.8136 39.3739 44.7783C40.0138 42.5775 38.0733 40.2341 36.0999 37.8509L36.0987 37.8497L36.0977 37.8483C35.886 37.5926 35.6735 37.3361 35.4642 37.0797C34.9278 36.4219 34.3899 35.8069 33.881 35.2251C32.1455 33.2409 30.7483 31.6434 30.9043 30.0541C31.0592 28.4578 34.1552 28.3654 39.2896 28.2744C40.3607 28.2544 42.4862 28.2025 42.0763 27.3478C41.7175 26.6077 40.1781 26.3535 38.2752 26.0392ZM68.4323 39.7063C69.2806 34.5097 72.754 30.1534 79.223 30.1534C85.6907 30.1534 87.7552 34.5097 86.9118 39.7063C86.0652 44.9085 82.5861 49.2559 76.1262 49.2559C69.6553 49.2559 67.5987 44.9085 68.4323 39.7063ZM82.9116 39.7063C82.2277 43.9602 80.2984 46.117 76.6285 46.117C72.9628 46.117 71.7395 43.9602 72.4328 39.7063C73.1183 35.4544 75.0401 33.2951 78.7149 33.2951C82.3828 33.2951 83.6006 35.4544 82.9116 39.7063ZM13.0266 31.3892C16.2517 31.2187 20.1692 31.7295 22.3697 33.2572C23.4637 34.0158 24.2331 35.4128 23.7876 37.0142C22.5177 41.5589 17.7776 47.0575 7.24422 51.2827C3.89492 52.6264 1.26145 53.1403 0.708777 52.7796C0.188082 52.4403 1.44973 50.0959 2.11982 48.8508C2.2143 48.6752 2.29753 48.5205 2.36179 48.3974C4.0432 45.1739 6.14412 42.035 8.19214 39.1613C8.26366 39.0609 8.3389 38.9536 8.41734 38.8417C9.16637 37.7732 10.2109 36.2833 11.1652 36.4162C12.1092 36.5473 11.0034 38.4971 10.2762 39.7364C9.05433 41.8166 5.68849 47.5944 6.79876 47.9394C9.25334 48.7036 20.7704 40.7535 19.0722 36.3251C18.2849 34.2705 13.2843 34.0746 10.1354 34.0746C9.88685 34.0746 9.58729 34.0838 9.26096 34.094H9.25944C7.70475 34.142 5.54403 34.2087 5.40101 33.3864C5.2144 32.4682 10.1542 31.5433 13.0266 31.3892ZM55.3748 38.5013C53.7583 37.355 53.3125 35.611 53.5402 34.1486C53.8696 32.0197 55.6704 30.1534 57.7332 30.1534H67.0146V32.1051C66.8828 32.9876 66.3958 33.8726 65.5332 33.8726H58.51C57.8116 33.8726 57.411 34.0579 57.3547 34.5097C57.3184 34.7763 57.4404 34.9644 57.9358 35.3241L64.0815 39.7452C65.3983 40.6896 66.0782 42.164 65.7543 44.2234C65.4109 46.4154 63.7049 48.4742 60.2512 48.4742H52.3687V45.9359C52.5024 45.1082 52.8973 44.762 53.6119 44.762H60.3388C61.5365 44.762 61.8907 44.4788 61.997 43.7961C62.069 43.3016 61.7759 43.0128 61.1616 42.5888L55.3748 38.5013ZM100.418 45.4935H92.7335L95.3825 30.7839C95.4412 30.4849 95.2253 30.1534 94.8618 30.1534H91.4792L88.1767 48.4742H100.912L101.239 46.6358C101.384 45.8248 101.117 45.4935 100.418 45.4935ZM202.817 30.2665H203.709C203.872 30.2665 204.049 30.2888 204.201 30.41C204.349 30.5214 204.428 30.732 204.424 30.9051C204.424 31.3433 204.164 31.5691 204.164 31.5691L194.848 39.5713L201.824 47.2482C201.824 47.2482 202.093 47.578 202.093 47.9114C202.093 48.091 202.014 48.2982 201.857 48.4173C201.71 48.5242 201.545 48.5479 201.365 48.556H200.484L193.114 40.444L191.636 48.5479H189.651L193.015 30.2325H193.907C194.108 30.2325 194.314 30.298 194.479 30.4306C194.637 30.5397 194.822 30.813 194.742 31.2096L193.51 38.3308L202.817 30.2665ZM123.54 30.1534H113.804L113.754 30.4465C113.53 31.6932 113.63 33.1269 115.575 33.1269H122.783C125.638 33.1269 126.732 35.2226 126.028 39.1493C125.381 42.7422 123.46 45.4935 120.554 45.4935H116.641L118.504 35.191H115.176C114.728 35.191 114.411 35.5186 114.368 35.8139L112.083 48.4686H119.711C125.346 48.4686 129.274 45.7933 130.483 39.0143C131.433 33.8154 129.284 30.1534 123.54 30.1534ZM176.115 30.2325H180.768C183.514 30.2325 185.93 30.275 187.335 31.903C188.137 32.8364 188.195 34.5578 187.972 35.611C187.692 36.9144 186.478 40.1746 181.914 40.5905L185.757 47.2482C185.757 47.2482 186.014 47.652 186.014 47.9114C186.021 48.091 185.942 48.2982 185.785 48.4173C185.636 48.5242 185.472 48.556 185.291 48.556H184.286L179.778 40.6985L176.152 40.6773L174.742 48.556H172.753L176.115 30.2325ZM182.83 38.5568C181.724 38.8562 180.172 38.9114 178.561 38.9114C178.238 38.9064 177.842 38.9026 177.431 38.8986C177.112 38.8954 176.781 38.8922 176.471 38.8884L177.659 32.2198C177.859 32.2189 178.157 32.2163 178.512 32.2129C179.821 32.2009 181.902 32.1816 182.721 32.2254C183.136 32.2474 183.507 32.277 183.731 32.3219C184.586 32.4864 185.143 32.6549 185.504 33.0174C187.064 34.5209 185.665 37.7828 182.83 38.5568ZM206.782 34.5097C206.799 33.14 207.165 30.2435 210.654 30.2324H218.126V31.6206C218.132 31.8461 217.899 32.133 217.685 32.1698L217.697 32.2198L217.683 32.1698C217.627 32.1862 210.979 32.1957 210.972 32.1957C209.608 32.1957 208.771 33.0952 208.763 34.2209C208.771 34.8865 209.143 35.5038 209.741 36.1019L214.563 40.907C214.57 40.907 216.294 42.373 216.294 44.2716V44.2789C216.278 45.6453 215.906 48.5428 212.42 48.556H205.032V47.182L205.009 47.1706H205.032C205.028 46.9428 205.247 46.6562 205.467 46.6152C205.508 46.6006 208.382 46.5957 210.336 46.5923H210.339C211.346 46.5906 212.11 46.5893 212.111 46.5873C213.471 46.5932 214.315 45.6805 214.315 44.5619C214.315 43.8976 214.017 43.1961 213.413 42.5988L208.328 37.5532C207.814 37.098 206.782 35.9501 206.782 34.5097ZM110.005 30.1534H106.62L103.312 48.4686H107.333L110.527 30.7783C110.582 30.485 110.367 30.1534 110.005 30.1534ZM165.296 30.1882V30.1974C170.731 30.837 172.349 35.7428 171.253 40.4368C170.033 45.6434 166.325 49.7536 160.41 49.2942C154.902 48.6461 153.332 43.7329 154.497 39.0455C155.772 33.8414 159.468 29.7315 165.296 30.1882ZM169.313 40.2784C168.059 45.6176 164.485 47.6023 161.124 47.4189L160.794 47.4019C157.54 46.9798 155.139 44.4383 156.416 39.2048C157.724 33.8672 161.518 31.8846 164.839 32.0679C168.135 32.4087 170.54 35.0446 169.313 40.2784ZM154.254 30.396C154.422 30.5269 154.504 30.7747 154.497 30.9561C154.497 31.1207 154.461 31.2043 154.413 31.3187L154.403 31.3433L147.426 47.2373C147.068 48.0668 146.379 48.5479 145.553 48.5479H144.247L142.233 38.5568L137.374 47.3207C137.147 47.6836 136.895 47.9836 136.596 48.2036C136.268 48.4446 135.869 48.556 135.426 48.5479H133.889V30.2325H135.072C135.259 30.2325 135.454 30.2665 135.625 30.41C135.805 30.5509 135.881 30.8062 135.881 31.0104L135.825 46.258L141.367 36.4794H142.546C143.263 36.4388 143.861 36.9571 143.966 37.7142L145.798 46.3456L152.819 30.2325H153.733C153.912 30.2325 154.092 30.2657 154.254 30.396Z" fill="#DA291C"/>
</g>
<defs>
<clipPath id="clip0_1059_75">
<rect width="219" height="68" fill="white"/>
</clipPath>
</defs>
</svg>
